<svg width="17" height="20" viewBox="0 0 17 20" fill="none" xmlns="http://www.w3.org/2000/svg">
<path d="M8.25 9.625C9.20182 9.625 10.1323 9.34275 10.9237 8.81395C11.7151 8.28515 12.3319 7.53354 12.6962 6.65417C13.0604 5.7748 13.1557 4.80716 12.97 3.87363C12.7843 2.9401 12.326 2.08259 11.653 1.40955C10.9799 0.736511 10.1224 0.278164 9.18887 0.092473C8.25534 -0.0932184 7.28771 0.00208518 6.40834 0.366332C5.52897 0.730579 4.77736 1.34741 4.24855 2.13882C3.71975 2.93023 3.4375 3.86068 3.4375 4.8125C3.4375 6.08886 3.94453 7.31293 4.84705 8.21545C5.74957 9.11797 6.97365 9.625 8.25 9.625ZM8.25 1.375C8.92987 1.375 9.59448 1.57661 10.1598 1.95433C10.7251 2.33204 11.1657 2.86891 11.4258 3.49703C11.686 4.12515 11.7541 4.81632 11.6214 5.48312C11.4888 6.14993 11.1614 6.76244 10.6807 7.24318C10.1999 7.72392 9.58743 8.05132 8.92062 8.18395C8.25381 8.31659 7.56265 8.24851 6.93453 7.98834C6.3064 7.72816 5.76954 7.28757 5.39182 6.72227C5.01411 6.15698 4.8125 5.49238 4.8125 4.8125C4.8125 3.90082 5.17466 3.02648 5.81932 2.38182C6.46398 1.73717 7.33832 1.375 8.25 1.375Z" fill="black"/>
<path d="M8.9375 11H7.5625C5.5568 11 3.63325 11.7968 2.21501 13.215C0.796761 14.6332 0 16.5568 0 18.5625C0 18.7448 0.072433 18.9197 0.201364 19.0486C0.330295 19.1776 0.505164 19.25 0.6875 19.25H15.8125C15.9948 19.25 16.1697 19.1776 16.2986 19.0486C16.4276 18.9197 16.5 18.7448 16.5 18.5625C16.5 16.5568 15.7032 14.6332 14.285 13.215C12.8668 11.7968 10.9432 11 8.9375 11ZM1.41625 17.875C1.5853 16.3629 2.30554 14.9662 3.43934 13.9516C4.57315 12.937 6.04102 12.3757 7.5625 12.375H8.9375C10.459 12.3757 11.9269 12.937 13.0607 13.9516C14.1945 14.9662 14.9147 16.3629 15.0838 17.875H1.41625Z" fill="black"/>
</svg>
